<svg id="Layer_4" data-name="Layer 4" xmlns="http://www.w3.org/2000/svg" viewBox="0 0 184.45 32.01"><defs><style>.cls-1{fill:#0092ff;}.cls-2{fill:#f0f1f2;}.cls-3{font-size:24.67px;fill:#819299;font-family:FranklinGothic-Heavy, Franklin Gothic Heavy;font-weight:800;}.cls-4{letter-spacing:0.01em;}.cls-5{letter-spacing:-0.04em;}.cls-6{letter-spacing:0em;}.cls-7{letter-spacing:-0.01em;}.cls-8{letter-spacing:0em;}</style></defs><title>logo</title><path class="cls-1" d="M14.52,13.56,17,32H1.77A2.14,2.14,0,0,1,0,29.65V17Z"/><path class="cls-1" d="M29.31,0c1.44,0,2.61.8,2.61,1.78V30.23c0,1-1.17,1.77-2.61,1.78H15.23L7,0Z"/><path class="cls-1" d="M11.34,0,13.9,14.56,0,17V1.78A1.78,1.78,0,0,1,1.77,0Z"/><path class="cls-2" d="M29,16.07l-7.31,7.3-2.44-2.43,4.88-4.87-4.88-4.88,2.44-2.43Zm-24.12,0,7.31-7.31,2.44,2.43L9.78,16.07l4.88,4.87-2.44,2.43Z"/><text class="cls-3" transform="translate(35.34 25.46)">PO<tspan class="cls-4" x="32.91" y="0">R</tspan><tspan class="cls-5" x="50.08" y="0">T</tspan><tspan class="cls-6" x="60.79" y="0">A</tspan><tspan class="cls-7" x="76.52" y="0">F</tspan><tspan class="cls-8" x="89.87" y="0">OLIO</tspan></text></svg>